<svg width="1024" height="512" viewBox="0 0 1024 512" fill="none" xmlns="http://www.w3.org/2000/svg">
  <defs>
    <linearGradient id="border" x1="24" y1="24" x2="1000" y2="488" gradientUnits="userSpaceOnUse">
      <stop stop-color="#4AA3FF"/>
      <stop offset="0.55" stop-color="#7CE0C3"/>
      <stop offset="1" stop-color="#F3A54A"/>
    </linearGradient>
    <linearGradient id="title" x1="350" y1="58" x2="677" y2="112" gradientUnits="userSpaceOnUse">
      <stop stop-color="#4AA3FF"/>
      <stop offset="1" stop-color="#73B8FF"/>
    </linearGradient>
    <pattern id="grid" width="48" height="48" patternUnits="userSpaceOnUse">
      <path d="M48 0H0V48" stroke="#1C2431" stroke-width="1"/>
    </pattern>
    <filter id="shadow" x="0" y="0" width="1024" height="512" filterUnits="userSpaceOnUse" color-interpolation-filters="sRGB">
      <feDropShadow dx="0" dy="12" stdDeviation="24" flood-color="#000000" flood-opacity="0.35"/>
    </filter>
  </defs>

  <rect width="1024" height="512" rx="22" fill="#0A0F17"/>
  <rect width="1024" height="512" rx="22" fill="url(#grid)" opacity="0.55"/>
  <rect x="8" y="8" width="1008" height="496" rx="16" stroke="url(#border)" stroke-width="3"/>
  <rect x="20" y="20" width="984" height="472" rx="14" stroke="#18202C" stroke-width="1"/>

  <g filter="url(#shadow)">
    <text x="512" y="115" text-anchor="middle" fill="url(#title)"
      font-family="ui-monospace, SFMono-Regular, Menlo, Monaco, Consolas, Liberation Mono, monospace"
      font-size="64" font-weight="700" letter-spacing="1">dotforge</text>

    <text x="512" y="173" text-anchor="middle" fill="#E7ECF2"
      font-family="ui-monospace, SFMono-Regular, Menlo, Monaco, Consolas, Liberation Mono, monospace"
      font-size="28" font-weight="400" letter-spacing="0.5">
      Configuration governance for Claude Code
    </text>
  </g>

  <g font-family="ui-monospace, SFMono-Regular, Menlo, Monaco, Consolas, Liberation Mono, monospace">
    <rect x="96" y="214" width="832" height="50" rx="12" fill="#151C26" stroke="#39424E"/>
    <text x="126" y="247" fill="#AAB4C3" font-size="22">🛠</text>
    <circle cx="166" cy="239" r="4" fill="#8D98A7"/>
    <text x="188" y="247" fill="#79E08D" font-size="20" font-weight="700">17 Skills</text>
    <text x="297" y="247" fill="#E7ECF2" font-size="20">— bootstrap, audit, sync, export, learn</text>

    <rect x="96" y="278" width="832" height="50" rx="12" fill="#151C26" stroke="#39424E"/>
    <text x="126" y="311" fill="#AAB4C3" font-size="22">✳</text>
    <circle cx="166" cy="303" r="4" fill="#8D98A7"/>
    <text x="188" y="311" fill="#79E08D" font-size="20" font-weight="700">7 AI Agents</text>
    <text x="323" y="311" fill="#E7ECF2" font-size="20">— researcher, architect, implementer</text>

    <rect x="96" y="342" width="832" height="50" rx="12" fill="#151C26" stroke="#39424E"/>
    <text x="126" y="375" fill="#AAB4C3" font-size="22">▤</text>
    <circle cx="166" cy="367" r="4" fill="#8D98A7"/>
    <text x="188" y="375" fill="#79E08D" font-size="20" font-weight="700">15 Tech Stacks</text>
    <text x="352" y="375" fill="#E7ECF2" font-size="20">— Python, React, Swift, Go, Docker...</text>

    <rect x="96" y="406" width="832" height="50" rx="12" fill="#151C26" stroke="#39424E"/>
    <text x="126" y="439" fill="#AAB4C3" font-size="22">◔</text>
    <circle cx="166" cy="431" r="4" fill="#8D98A7"/>
    <text x="188" y="439" fill="#79E08D" font-size="20" font-weight="700">Audit Scoring 0-10</text>
    <text x="400" y="439" fill="#E7ECF2" font-size="20">— security cap, practices pipeline, sync</text>
  </g>

  <text x="950" y="457" fill="#DCE2EA" font-size="36"
    font-family="ui-monospace, SFMono-Regular, Menlo, Monaco, Consolas, Liberation Mono, monospace">✦</text>
</svg>
